{"title":"Blood and Chrome Wondercon Trailer 1080p stereo &gt;&gt; sound i","uid":7127324,"size":88670593,"categoryP":"video","categoryS":"hd___tv_shows","magnet":"?xt=urn:btih:d38b4163bd4a108433e4b941b8dd6802afd4b109&amp;dn=Blood+and+Chrome+Wondercon+Trailer+1080p+stereo+%26gt%3B%26gt%3B+sound+i&amp;tr=udp%3A%2F%2Ftracker.openbittorrent.com%3A80&amp;tr=udp%3A%2F%2Fopen.demonii.com%3A1337&amp;tr=udp%3A%2F%2Ftracker.coppersurfer.tk%3A6969&amp;tr=udp%3A%2F%2Fexodus.desync.com%3A6969","seeders":1,"leechers":0,"uploader":"bsg4you","files":2,"time":1332572192,"description":"Blood.and.Chrome.Wondercon.Trailer.1080p.stereo.mp4 has the video track from the torrent &quot;Blood and Chrome trailer test&quot; with the audio track changed from:\nold: AAC 44.1KHz mono    72Kbps\nnew: AAC 48.0KHz stereo 165Kbps sourced from lossless flac.\n\nGeneral\nComplete name             : Blood.and.Chrome.Wondercon.Trailer.1080p.stereo.mp4\nFormat                    : MPEG-4\nFormat profile            : Base Media\nCodec ID                  : isom\nFile size                 : 84.6 MiB\nDuration                  : 1mn 35s\nOverall bit rate mode     : Variable\nOverall bit rate          : 7 415 Kbps\nWriting application       : Lavf52.32.0\n\nVideo\nID                        : 1\nFormat                    : AVC\nFormat/Info               : Advanced Video Codec\nFormat profile            : &lt;a class=&quot;__cf_email__&quot; href=&quot;/cdn-cgi/l/email-protection&quot; data-cfemail=&quot;0f4d6e7c6a6366616a4f433b213f&quot;&gt;[email&amp;#160;protected]&lt;/a&gt;&lt;script cf-hash='f9e31' type=&quot;text/javascript&quot;&gt;\n/* &lt;![CDATA[ */!function(){try{var t=&quot;currentScript&quot;in document?document.currentScript:function(){for(var t=document.getElementsByTagName(&quot;script&quot;),e=t.length;e--;)if(t[e].getAttribute(&quot;cf-hash&quot;))return t[e]}();if(t&amp;&amp;t.previousSibling){var e,r,n,i,c=t.previousSibling,a=c.getAttribute(&quot;data-cfemail&quot;);if(a){for(e=&quot;&quot;,r=parseInt(a.substr(0,2),16),n=2;a.length-n;n+=2)i=parseInt(a.substr(n,2),16)^r,e+=String.fromCharCode(i);e=document.createTextNode(e),c.parentNode.replaceChild(e,c)}}}catch(u){}}();/* ]]&gt; */&lt;/script&gt;\nFormat settings, CABAC    : No\nFormat settings, ReFrames : 4 frames\nFormat settings, GOP      : M=1, N=12\nCodec ID                  : avc1\nCodec ID/Info             : Advanced Video Coding\nDuration                  : 1mn 34s\nBit rate                  : 7 302 Kbps\nWidth                     : 1 920 pixels\nHeight                    : 1 080 pixels\nDisplay aspect ratio      : 16:9\nFrame rate mode           : Constant\nFrame rate                : 23.976 fps\nStandard                  : NTSC\nColor space               : YUV\nChroma subsampling        : 4:2:0\nBit depth                 : 8 bits\nScan type                 : Progressive\nBits/(Pixel*Frame)        : 0.147\nStream size               : 82.6 MiB (98%)\nLanguage                  : English\nColor primaries           : BT.601-6 525, BT.1358 525, BT.1700 NTSC, SMPTE 170M\nTransfer characteristics  : BT.601-6 525, BT.601-6 625, BT.1358 525, BT.1358 625, BT.1700 NTSC, SMPTE 170M\nMatrix coefficients       : BT.601-6 525, BT.1358 525, BT.1700 NTSC, SMPTE 170M\n\nAudio\nID                        : 2\nFormat                    : AAC\nFormat/Info               : Advanced Audio Codec\nFormat profile            : LC\nCodec ID                  : 40\nDuration                  : 1mn 35s\nBit rate mode             : Variable\nBit rate                  : 165 Kbps\nChannel(s)                : 2 channels\nChannel positions         : Front: L R\nSampling rate             : 48.0 KHz\nCompression mode          : Lossy\nStream size               : 1.88 MiB (2%)\nLanguage                  : English\n\n","torrent":{"xt":"urn:btih:d38b4163bd4a108433e4b941b8dd6802afd4b109","amp;dn":"Blood+and+Chrome+Wondercon+Trailer+1080p+stereo+%26gt%3B%26gt%3B+sound+i","amp;tr":["udp%3A%2F%2Ftracker.openbittorrent.com%3A80","udp%3A%2F%2Fopen.demonii.com%3A1337","udp%3A%2F%2Ftracker.coppersurfer.tk%3A6969","udp%3A%2F%2Fexodus.desync.com%3A6969"],"infoHash":"d38b4163bd4a108433e4b941b8dd6802afd4b109","infoHashBuffer":{"type":"Buffer","data":[211,139,65,99,189,74,16,132,51,228,185,65,184,221,104,2,175,212,177,9]},"announce":[],"urlList":[]}}